<svg xmlns="http://www.w3.org/2000/svg" width="1200" height="320" viewBox="0 0 1200 320" role="img" aria-labelledby="title desc">
  <title id="title">Custom Coder Builder</title>
  <defs>
    <linearGradient id="background" x1="0" x2="1" y1="0" y2="1">
      <stop offset="0" stop-color="#020617"/>
      <stop offset="0.48" stop-color="#08111f"/>
      <stop offset="1" stop-color="#041b16"/>
    </linearGradient>
    <radialGradient id="glow-green" cx="0.22" cy="0.36" r="0.62">
      <stop offset="0" stop-color="#22c55e" stop-opacity="0.36"/>
      <stop offset="0.52" stop-color="#22c55e" stop-opacity="0.08"/>
      <stop offset="1" stop-color="#22c55e" stop-opacity="0"/>
    </radialGradient>
    <radialGradient id="glow-cyan" cx="0.78" cy="0.2" r="0.55">
      <stop offset="0" stop-color="#06b6d4" stop-opacity="0.28"/>
      <stop offset="0.58" stop-color="#06b6d4" stop-opacity="0.06"/>
      <stop offset="1" stop-color="#06b6d4" stop-opacity="0"/>
    </radialGradient>
    <pattern id="grid" width="32" height="32" patternUnits="userSpaceOnUse">
      <path d="M32 0H0V32" fill="none" stroke="#8fffd3" stroke-opacity="0.08" stroke-width="1"/>
    </pattern>
    <pattern id="scanlines" width="1200" height="8" patternUnits="userSpaceOnUse">
      <path d="M0 0H1200V1H0z" fill="#ffffff" fill-opacity="0.035"/>
    </pattern>
    <filter id="soft-glow" x="-30%" y="-30%" width="160%" height="160%">
      <feGaussianBlur in="SourceGraphic" stdDeviation="3" result="blur"/>
      <feMerge>
        <feMergeNode in="blur"/>
        <feMergeNode in="SourceGraphic"/>
      </feMerge>
    </filter>
    <linearGradient id="terminal" x1="0" x2="1">
      <stop offset="0" stop-color="#03120d"/>
      <stop offset="1" stop-color="#061827"/>
    </linearGradient>
  </defs>

  <rect width="1200" height="320" fill="url(#background)"/>
  <rect width="1200" height="320" fill="url(#glow-green)"/>
  <rect width="1200" height="320" fill="url(#glow-cyan)"/>
  <rect width="1200" height="320" fill="url(#grid)"/>
  <rect width="1200" height="320" fill="url(#scanlines)"/>

  <g opacity="0.2" font-family="Menlo, Consolas, monospace" font-size="13" fill="#7dd3fc">
    <text x="36" y="36">01001011</text>
    <text x="1066" y="48">0xC0DER</text>
    <text x="982" y="286">sha256:linux-multiarch</text>
  </g>

  <g transform="translate(52 58)">
    <rect x="0" y="0" width="358" height="204" rx="8" fill="url(#terminal)" stroke="#16a34a" stroke-opacity="0.75"/>
    <rect x="0" y="0" width="358" height="34" rx="8" fill="#07130f" stroke="#16a34a" stroke-opacity="0.45"/>
    <circle cx="22" cy="17" r="5" fill="#ef4444"/>
    <circle cx="42" cy="17" r="5" fill="#f59e0b"/>
    <circle cx="62" cy="17" r="5" fill="#22c55e"/>
    <text x="86" y="22" fill="#94a3b8" font-family="Menlo, Consolas, monospace" font-size="12">builder@coder:~/workspace</text>

    <g font-family="Menlo, Consolas, monospace" font-size="14">
      <text x="22" y="64" fill="#22c55e">$ python3 build-coder-in-docker.py \</text>
      <text x="42" y="88" fill="#a7f3d0">--tag dev --platform all</text>
      <text x="22" y="122" fill="#67e8f9">[+] resolving upstream coder/coder</text>
      <text x="22" y="146" fill="#67e8f9">[+] applying path overrides</text>
      <text x="22" y="170" fill="#67e8f9">[+] building selected Linux images</text>
    </g>
    <rect x="312" y="158" width="10" height="18" fill="#22c55e" filter="url(#soft-glow)">
      <animate attributeName="opacity" values="1;0.25;1" dur="1.1s" repeatCount="indefinite"/>
    </rect>
  </g>

  <g transform="translate(468 74)">
    <text x="0" y="0" fill="#86efac" font-family="Menlo, Consolas, monospace" font-size="18">ACCESS GRANTED</text>
    <text x="0" y="66" fill="#f8fafc" font-family="Inter, Arial, sans-serif" font-size="54" font-weight="800">Custom Coder Builder</text>
    <text x="3" y="108" fill="#cffafe" font-family="Inter, Arial, sans-serif" font-size="23">Build coder/coder releases as selected Linux Docker images</text>

    <g transform="translate(3 164)" font-family="Menlo, Consolas, monospace" font-size="15" text-anchor="middle">
      <rect x="0" y="-24" width="640" height="50" rx="6" fill="#020617" fill-opacity="0.72" stroke="#22c55e" stroke-opacity="0.45"/>
      <rect x="14" y="-14" width="138" height="30" rx="5" fill="#052e24" stroke="#22c55e" stroke-opacity="0.55"/>
      <rect x="166" y="-14" width="168" height="30" rx="5" fill="#082f49" stroke="#67e8f9" stroke-opacity="0.55"/>
      <rect x="348" y="-14" width="132" height="30" rx="5" fill="#3b1d4f" stroke="#f0abfc" stroke-opacity="0.55"/>
      <rect x="494" y="-14" width="130" height="30" rx="5" fill="#3a2b0a" stroke="#fde68a" stroke-opacity="0.55"/>
      <text x="83" y="6" fill="#bbf7d0">fetch release</text>
      <text x="250" y="6" fill="#a5f3fc">apply overrides</text>
      <text x="414" y="6" fill="#f5d0fe">build images</text>
      <text x="559" y="6" fill="#fde68a">tag + push</text>
    </g>
  </g>

  <path d="M0 304C130 286 220 302 352 283C480 264 585 303 720 282C882 257 1000 288 1200 256V320H0z" fill="#22c55e" fill-opacity="0.08"/>
  <rect x="0" y="0" width="1200" height="320" fill="none" stroke="#22c55e" stroke-opacity="0.25"/>
</svg>
